<svg viewBox="0 0 201 218" xmlns="http://www.w3.org/2000/svg"><g transform="translate(4 214)"><ellipse cx="135" cy="-192" fill="#fff" rx="18" ry="18" stroke="#000" stroke-width="1.5"/><text font-family="Source Code Pro,Ubuntu Mono,DejaVu Sans Mono,monospace" font-size="18" text-anchor="middle" x="135" y="-186.6">+</text></g><g transform="translate(4 214)"><ellipse cx="96" cy="-134" fill="#fff" rx="18" ry="18" stroke="#000" stroke-width="1.5"/><text font-family="Source Code Pro,Ubuntu Mono,DejaVu Sans Mono,monospace" font-size="18" text-anchor="middle" x="96" y="-128.6">*</text></g><g stroke="#000" stroke-width=".75"><path d="m128.753 37.239-14.244 21.184" fill="none"/><path d="m116.677 59.903-6.363 4.759 2.006-7.689z"/></g><g transform="translate(4 214)"><ellipse cx="175" cy="-134" fill="#fff" rx="18" ry="18" stroke="#000" stroke-width="1.5"/><text font-family="Source Code Pro,Ubuntu Mono,DejaVu Sans Mono,monospace" font-size="18" text-anchor="middle" x="175" y="-128.6">7</text></g><g stroke="#000" stroke-width=".75"><path d="m149.301 36.936 14.91 21.619" fill="none"/><path d="m166.498 57.248 2.097 7.665-6.42-4.684 4.323-2.98z"/></g><g transform="translate(4 214)"><ellipse cx="57" cy="-76" fill="#fff" rx="18" ry="18" stroke="#000" stroke-width="1.5"/><text font-family="Source Code Pro,Ubuntu Mono,DejaVu Sans Mono,monospace" font-size="18" text-anchor="middle" x="57" y="-70.6">+</text></g><g stroke="#000" stroke-width=".75"><path d="m89.753 95.239-14.243 21.184" fill="none"/><path d="m77.677 117.903-6.363 4.759 2.006-7.689z"/></g><g transform="translate(4 214)"><ellipse cx="136" cy="-76" fill="#fff" rx="18" ry="18" stroke="#000" stroke-width="1.5"/><text font-family="Source Code Pro,Ubuntu Mono,DejaVu Sans Mono,monospace" font-size="18" text-anchor="middle" x="136" y="-70.6">c</text></g><g stroke="#000" stroke-width=".75"><path d="m110.301 94.936 14.91 21.619" fill="none"/><path d="m127.498 115.248 2.097 7.665-6.42-4.684 4.323-2.98z"/></g><g transform="translate(4 214)"><ellipse cx="18" cy="-18" fill="#fff" rx="18" ry="18" stroke="#000" stroke-width="1.5"/><text font-family="Source Code Pro,Ubuntu Mono,DejaVu Sans Mono,monospace" font-size="18" text-anchor="middle" x="18" y="-12.6">a</text></g><g stroke="#000" stroke-width=".75"><path d="m50.753 153.239-14.243 21.184" fill="none"/><path d="m38.677 175.903-6.363 4.759 2.006-7.689z"/></g><g transform="translate(4 214)"><ellipse cx="97" cy="-18" fill="#fff" rx="18" ry="18" stroke="#000" stroke-width="1.5"/><text font-family="Source Code Pro,Ubuntu Mono,DejaVu Sans Mono,monospace" font-size="18" text-anchor="middle" x="97" y="-12.6">b</text></g><g stroke="#000" stroke-width=".75"><path d="m71.301 152.936 14.91 21.619" fill="none"/><path d="m88.498 173.248 2.097 7.665-6.42-4.684 4.323-2.98z"/></g></svg>